<svg width="33" height="32" viewBox="0 0 33 32" fill="none" xmlns="http://www.w3.org/2000/svg">
<g id="cheese">
<g id="cheese_2">
<path id="Vector" d="M9.23349 13.9636H2.3335V26.9636H30.5335V24.4636" stroke="black" stroke-width="1.5" stroke-linecap="round" stroke-linejoin="round"/>
<path id="Vector_2" d="M30.5336 16.9636V13.9636H8.93359" stroke="black" stroke-width="1.5" stroke-linecap="round" stroke-linejoin="round"/>
<path id="Vector_3" d="M30.5335 13.9637L16.0335 7.06369C14.0471 6.05405 11.7758 5.75154 9.59439 6.20601C7.41293 6.66048 5.4515 7.8448 4.03351 9.56369C2.97486 10.7895 2.37405 12.3445 2.3335 13.9637" stroke="black" stroke-width="1.5" stroke-linecap="round" stroke-linejoin="round"/>
<path id="Vector_4" d="M10.4334 23.9637C12.2007 23.9637 13.6334 22.531 13.6334 20.7637C13.6334 18.9964 12.2007 17.5637 10.4334 17.5637C8.6661 17.5637 7.2334 18.9964 7.2334 20.7637C7.2334 22.531 8.6661 23.9637 10.4334 23.9637Z" stroke="black" stroke-width="1.5" stroke-linecap="round" stroke-linejoin="round"/>
<path id="Vector_5" d="M20.3334 22.8637C21.4932 22.8637 22.4334 21.9235 22.4334 20.7637C22.4334 19.6039 21.4932 18.6637 20.3334 18.6637C19.1736 18.6637 18.2334 19.6039 18.2334 20.7637C18.2334 21.9235 19.1736 22.8637 20.3334 22.8637Z" stroke="black" stroke-width="1.5" stroke-miterlimit="10"/>
<path id="Vector_6" d="M30.5336 24.4637C29.9898 24.5528 29.4332 24.5226 28.9023 24.3751C28.3714 24.2277 27.8789 23.9665 27.459 23.6098C27.039 23.2531 26.7017 22.8093 26.4703 22.3092C26.239 21.8091 26.1191 21.2647 26.1191 20.7137C26.1191 20.1627 26.239 19.6183 26.4703 19.1182C26.7017 18.6181 27.039 18.1743 27.459 17.8176C27.8789 17.4609 28.3714 17.1997 28.9023 17.0523C29.4332 16.9048 29.9898 16.8746 30.5336 16.9637" stroke="black" stroke-width="1.5" stroke-linecap="round" stroke-linejoin="round"/>
</g>
</g>
</svg>
